<mxfile host="app.diagrams.net" agent="Mozilla/5.0 (Windows NT 10.0; Win64; x64) AppleWebKit/537.36 (KHTML, like Gecko) Chrome/136.0.0.0 Safari/537.36" version="27.1.1">
  <diagram name="Page-1" id="oY2RIUIE8qrH9QMFWGEj">
    <mxGraphModel dx="1969" dy="1065" grid="1" gridSize="10" guides="1" tooltips="1" connect="1" arrows="1" fold="1" page="1" pageScale="1" pageWidth="827" pageHeight="1169" math="0" shadow="0">
      <root>
        <mxCell id="0" />
        <mxCell id="1" parent="0" />
        <mxCell id="5Wk8-XbovUFPplN8qRzZ-1" value="STG.PHYSICAL_CUSTOMERS" style="rounded=0;whiteSpace=wrap;html=1;fillColor=#ffe6cc;strokeColor=#d79b00;" vertex="1" parent="1">
          <mxGeometry x="70" y="140" width="190" height="60" as="geometry" />
        </mxCell>
        <mxCell id="5Wk8-XbovUFPplN8qRzZ-2" value="STG.CORPORATE_CUSTOMERS" style="rounded=0;whiteSpace=wrap;html=1;fillColor=#ffe6cc;strokeColor=#d79b00;" vertex="1" parent="1">
          <mxGeometry x="610" y="140" width="190" height="60" as="geometry" />
        </mxCell>
        <mxCell id="5Wk8-XbovUFPplN8qRzZ-3" value="STG.BANKING_CUSTOMERS" style="rounded=0;whiteSpace=wrap;html=1;fillColor=#ffe6cc;strokeColor=#d79b00;" vertex="1" parent="1">
          <mxGeometry x="350" y="250" width="190" height="60" as="geometry" />
        </mxCell>
        <mxCell id="5Wk8-XbovUFPplN8qRzZ-4" value="" style="endArrow=classic;html=1;rounded=0;entryX=0;entryY=0.5;entryDx=0;entryDy=0;" edge="1" parent="1" target="5Wk8-XbovUFPplN8qRzZ-3">
          <mxGeometry width="50" height="50" relative="1" as="geometry">
            <mxPoint x="160" y="197" as="sourcePoint" />
            <mxPoint x="410" y="430" as="targetPoint" />
            <Array as="points">
              <mxPoint x="160" y="280" />
            </Array>
          </mxGeometry>
        </mxCell>
        <mxCell id="5Wk8-XbovUFPplN8qRzZ-6" value="" style="endArrow=classic;html=1;rounded=0;entryX=1;entryY=0.5;entryDx=0;entryDy=0;exitX=0.563;exitY=1.022;exitDx=0;exitDy=0;exitPerimeter=0;" edge="1" parent="1" source="5Wk8-XbovUFPplN8qRzZ-2" target="5Wk8-XbovUFPplN8qRzZ-3">
          <mxGeometry width="50" height="50" relative="1" as="geometry">
            <mxPoint x="360" y="480" as="sourcePoint" />
            <mxPoint x="410" y="430" as="targetPoint" />
            <Array as="points">
              <mxPoint x="717" y="280" />
            </Array>
          </mxGeometry>
        </mxCell>
        <mxCell id="5Wk8-XbovUFPplN8qRzZ-7" value="FULL INNER JOIN" style="text;html=1;align=center;verticalAlign=middle;resizable=0;points=[];autosize=1;strokeColor=#d79b00;fillColor=#ffe6cc;" vertex="1" parent="1">
          <mxGeometry x="180" y="290" width="120" height="30" as="geometry" />
        </mxCell>
        <mxCell id="5Wk8-XbovUFPplN8qRzZ-8" value="FULL INNER JOIN" style="text;html=1;align=center;verticalAlign=middle;resizable=0;points=[];autosize=1;strokeColor=#d79b00;fillColor=#ffe6cc;" vertex="1" parent="1">
          <mxGeometry x="580" y="290" width="120" height="30" as="geometry" />
        </mxCell>
        <mxCell id="5Wk8-XbovUFPplN8qRzZ-13" value="" style="endArrow=classic;html=1;rounded=0;exitX=0.092;exitY=1.018;exitDx=0;exitDy=0;exitPerimeter=0;" edge="1" parent="1">
          <mxGeometry width="50" height="50" relative="1" as="geometry">
            <mxPoint x="444.40999999999997" y="310" as="sourcePoint" />
            <mxPoint x="444.40999999999997" y="413" as="targetPoint" />
          </mxGeometry>
        </mxCell>
        <mxCell id="5Wk8-XbovUFPplN8qRzZ-14" value="DW.CUSTOMER_TRANSFORM" style="ellipse;whiteSpace=wrap;html=1;fillColor=#dae8fc;strokeColor=#6c8ebf;" vertex="1" parent="1">
          <mxGeometry x="345" y="410" width="200" height="80" as="geometry" />
        </mxCell>
        <mxCell id="5Wk8-XbovUFPplN8qRzZ-15" value="DW.CUSTOMER_DATA" style="ellipse;whiteSpace=wrap;html=1;fillColor=#dae8fc;strokeColor=#6c8ebf;" vertex="1" parent="1">
          <mxGeometry x="345" y="590" width="200" height="80" as="geometry" />
        </mxCell>
        <mxCell id="5Wk8-XbovUFPplN8qRzZ-17" value="" style="endArrow=classic;html=1;rounded=0;exitX=0.5;exitY=1;exitDx=0;exitDy=0;entryX=0.497;entryY=0;entryDx=0;entryDy=0;entryPerimeter=0;" edge="1" parent="1" source="5Wk8-XbovUFPplN8qRzZ-14" target="5Wk8-XbovUFPplN8qRzZ-15">
          <mxGeometry width="50" height="50" relative="1" as="geometry">
            <mxPoint x="444.40999999999997" y="482" as="sourcePoint" />
            <mxPoint x="444.40999999999997" y="585" as="targetPoint" />
          </mxGeometry>
        </mxCell>
        <mxCell id="5Wk8-XbovUFPplN8qRzZ-19" value="TRANSFORM" style="text;html=1;align=center;verticalAlign=middle;resizable=0;points=[];autosize=1;strokeColor=#6c8ebf;fillColor=#dae8fc;" vertex="1" parent="1">
          <mxGeometry x="330" y="350" width="100" height="30" as="geometry" />
        </mxCell>
        <mxCell id="5Wk8-XbovUFPplN8qRzZ-20" value="TRANSFORM" style="text;html=1;align=center;verticalAlign=middle;resizable=0;points=[];autosize=1;strokeColor=#6c8ebf;fillColor=#dae8fc;" vertex="1" parent="1">
          <mxGeometry x="320" y="520" width="100" height="30" as="geometry" />
        </mxCell>
        <mxCell id="5Wk8-XbovUFPplN8qRzZ-22" value="&lt;font style=&quot;font-size: 16px;&quot;&gt;DM.DimCustomer&lt;/font&gt;" style="rounded=1;whiteSpace=wrap;html=1;fillColor=#d5e8d4;strokeColor=#82b366;" vertex="1" parent="1">
          <mxGeometry x="320" y="780" width="250" height="90" as="geometry" />
        </mxCell>
        <mxCell id="5Wk8-XbovUFPplN8qRzZ-24" value="" style="endArrow=classic;html=1;rounded=0;exitX=0.463;exitY=0.968;exitDx=0;exitDy=0;entryX=0.497;entryY=0;entryDx=0;entryDy=0;entryPerimeter=0;exitPerimeter=0;" edge="1" parent="1" source="5Wk8-XbovUFPplN8qRzZ-15">
          <mxGeometry width="50" height="50" relative="1" as="geometry">
            <mxPoint x="440.41" y="680" as="sourcePoint" />
            <mxPoint x="439.41" y="780" as="targetPoint" />
          </mxGeometry>
        </mxCell>
        <mxCell id="5Wk8-XbovUFPplN8qRzZ-28" value="LOAD" style="text;html=1;align=center;verticalAlign=middle;resizable=0;points=[];autosize=1;strokeColor=#82b366;fillColor=#d5e8d4;" vertex="1" parent="1">
          <mxGeometry x="340" y="710" width="60" height="30" as="geometry" />
        </mxCell>
        <mxCell id="5Wk8-XbovUFPplN8qRzZ-29" value="Legend" style="text;html=1;align=center;verticalAlign=middle;resizable=0;points=[];autosize=1;strokeColor=none;fillColor=none;" vertex="1" parent="1">
          <mxGeometry x="20" y="870" width="60" height="30" as="geometry" />
        </mxCell>
        <mxCell id="5Wk8-XbovUFPplN8qRzZ-31" value="EXTRACT" style="text;html=1;align=center;verticalAlign=middle;resizable=0;points=[];autosize=1;strokeColor=#d79b00;fillColor=#ffe6cc;glass=0;rounded=0;shadow=1;" vertex="1" parent="1">
          <mxGeometry x="30" y="900" width="80" height="30" as="geometry" />
        </mxCell>
        <mxCell id="5Wk8-XbovUFPplN8qRzZ-32" value="TRANSFORM" style="text;html=1;align=center;verticalAlign=middle;resizable=0;points=[];autosize=1;strokeColor=#6c8ebf;fillColor=#dae8fc;shadow=1;" vertex="1" parent="1">
          <mxGeometry x="30" y="940" width="100" height="30" as="geometry" />
        </mxCell>
        <mxCell id="5Wk8-XbovUFPplN8qRzZ-34" value="LOAD" style="text;html=1;align=center;verticalAlign=middle;resizable=0;points=[];autosize=1;strokeColor=#82b366;fillColor=#d5e8d4;shadow=1;" vertex="1" parent="1">
          <mxGeometry x="30" y="980" width="60" height="30" as="geometry" />
        </mxCell>
        <mxCell id="5Wk8-XbovUFPplN8qRzZ-53" value="STG.PROFILE_GROUPS" style="rounded=0;whiteSpace=wrap;html=1;fillColor=#ffe6cc;strokeColor=#d79b00;" vertex="1" parent="1">
          <mxGeometry x="940" y="120" width="188" height="60" as="geometry" />
        </mxCell>
        <mxCell id="5Wk8-XbovUFPplN8qRzZ-54" value="STG.CORPORATE_CUSTOMERS" style="rounded=0;whiteSpace=wrap;html=1;fillColor=#ffe6cc;strokeColor=#d79b00;" vertex="1" parent="1">
          <mxGeometry x="1215" y="360" width="188" height="60" as="geometry" />
        </mxCell>
        <mxCell id="5Wk8-XbovUFPplN8qRzZ-55" value="STG.ACCOUNTS" style="rounded=0;whiteSpace=wrap;html=1;fillColor=#ffe6cc;strokeColor=#d79b00;" vertex="1" parent="1">
          <mxGeometry x="1215" y="220" width="188" height="60" as="geometry" />
        </mxCell>
        <mxCell id="5Wk8-XbovUFPplN8qRzZ-58" value="FULL INNER JOIN" style="text;html=1;align=center;verticalAlign=middle;resizable=0;points=[];autosize=1;strokeColor=#d79b00;fillColor=#ffe6cc;" vertex="1" parent="1">
          <mxGeometry x="1170" y="160" width="120" height="30" as="geometry" />
        </mxCell>
        <mxCell id="5Wk8-XbovUFPplN8qRzZ-59" value="FULL INNER JOIN" style="text;html=1;align=center;verticalAlign=middle;resizable=0;points=[];autosize=1;strokeColor=#d79b00;fillColor=#ffe6cc;" vertex="1" parent="1">
          <mxGeometry x="1170" y="310" width="120" height="30" as="geometry" />
        </mxCell>
        <mxCell id="5Wk8-XbovUFPplN8qRzZ-60" value="" style="endArrow=classic;html=1;rounded=0;exitX=0.092;exitY=1.018;exitDx=0;exitDy=0;exitPerimeter=0;entryX=0.5;entryY=0;entryDx=0;entryDy=0;" edge="1" parent="1" target="5Wk8-XbovUFPplN8qRzZ-55">
          <mxGeometry width="50" height="50" relative="1" as="geometry">
            <mxPoint x="1129.9999999999998" y="140" as="sourcePoint" />
            <mxPoint x="1129.9999999999998" y="243" as="targetPoint" />
            <Array as="points">
              <mxPoint x="1310" y="140" />
            </Array>
          </mxGeometry>
        </mxCell>
        <mxCell id="5Wk8-XbovUFPplN8qRzZ-61" value="DW.CUSTOMER_TRANSFORM" style="ellipse;whiteSpace=wrap;html=1;fillColor=#dae8fc;strokeColor=#6c8ebf;" vertex="1" parent="1">
          <mxGeometry x="1210" y="510" width="198" height="80" as="geometry" />
        </mxCell>
        <mxCell id="5Wk8-XbovUFPplN8qRzZ-65" value="TRANSFORM" style="text;html=1;align=center;verticalAlign=middle;resizable=0;points=[];autosize=1;strokeColor=#6c8ebf;fillColor=#dae8fc;" vertex="1" parent="1">
          <mxGeometry x="1170" y="460" width="100" height="30" as="geometry" />
        </mxCell>
        <mxCell id="5Wk8-XbovUFPplN8qRzZ-66" value="&lt;font style=&quot;font-size: 16px;&quot;&gt;DM.DimAccount&lt;/font&gt;" style="rounded=1;whiteSpace=wrap;html=1;fillColor=#d5e8d4;strokeColor=#82b366;" vertex="1" parent="1">
          <mxGeometry x="840" y="505" width="248" height="90" as="geometry" />
        </mxCell>
        <mxCell id="5Wk8-XbovUFPplN8qRzZ-67" value="" style="endArrow=classic;html=1;rounded=0;exitX=0;exitY=0.5;exitDx=0;exitDy=0;entryX=1;entryY=0.5;entryDx=0;entryDy=0;" edge="1" parent="1" source="5Wk8-XbovUFPplN8qRzZ-61" target="5Wk8-XbovUFPplN8qRzZ-66">
          <mxGeometry width="50" height="50" relative="1" as="geometry">
            <mxPoint x="1307.6000000000004" y="647.44" as="sourcePoint" />
            <mxPoint x="1309.41" y="760" as="targetPoint" />
          </mxGeometry>
        </mxCell>
        <mxCell id="5Wk8-XbovUFPplN8qRzZ-68" value="LOAD" style="text;html=1;align=center;verticalAlign=middle;resizable=0;points=[];autosize=1;strokeColor=#82b366;fillColor=#d5e8d4;" vertex="1" parent="1">
          <mxGeometry x="1130" y="565" width="60" height="30" as="geometry" />
        </mxCell>
        <mxCell id="5Wk8-XbovUFPplN8qRzZ-69" value="Legend" style="text;html=1;align=center;verticalAlign=middle;resizable=0;points=[];autosize=1;strokeColor=none;fillColor=none;" vertex="1" parent="1">
          <mxGeometry x="890" y="850" width="60" height="30" as="geometry" />
        </mxCell>
        <mxCell id="5Wk8-XbovUFPplN8qRzZ-70" value="EXTRACT" style="text;html=1;align=center;verticalAlign=middle;resizable=0;points=[];autosize=1;strokeColor=#d79b00;fillColor=#ffe6cc;glass=0;rounded=0;shadow=1;" vertex="1" parent="1">
          <mxGeometry x="900" y="880" width="80" height="30" as="geometry" />
        </mxCell>
        <mxCell id="5Wk8-XbovUFPplN8qRzZ-71" value="TRANSFORM" style="text;html=1;align=center;verticalAlign=middle;resizable=0;points=[];autosize=1;strokeColor=#6c8ebf;fillColor=#dae8fc;shadow=1;" vertex="1" parent="1">
          <mxGeometry x="900" y="920" width="100" height="30" as="geometry" />
        </mxCell>
        <mxCell id="5Wk8-XbovUFPplN8qRzZ-72" value="LOAD" style="text;html=1;align=center;verticalAlign=middle;resizable=0;points=[];autosize=1;strokeColor=#82b366;fillColor=#d5e8d4;shadow=1;" vertex="1" parent="1">
          <mxGeometry x="900" y="960" width="60" height="30" as="geometry" />
        </mxCell>
        <mxCell id="5Wk8-XbovUFPplN8qRzZ-73" value="" style="endArrow=classic;html=1;rounded=0;entryX=0.5;entryY=0;entryDx=0;entryDy=0;" edge="1" parent="1" target="5Wk8-XbovUFPplN8qRzZ-54">
          <mxGeometry width="50" height="50" relative="1" as="geometry">
            <mxPoint x="1310" y="280" as="sourcePoint" />
            <mxPoint x="1316" y="360" as="targetPoint" />
          </mxGeometry>
        </mxCell>
        <mxCell id="5Wk8-XbovUFPplN8qRzZ-75" value="" style="endArrow=classic;html=1;rounded=0;entryX=0.5;entryY=0;entryDx=0;entryDy=0;" edge="1" parent="1" target="5Wk8-XbovUFPplN8qRzZ-61">
          <mxGeometry width="50" height="50" relative="1" as="geometry">
            <mxPoint x="1309.41" y="420" as="sourcePoint" />
            <mxPoint x="1310" y="480" as="targetPoint" />
          </mxGeometry>
        </mxCell>
        <mxCell id="5Wk8-XbovUFPplN8qRzZ-77" value="&lt;font style=&quot;font-size: 16px;&quot;&gt;DM.DimDateTime&lt;/font&gt;" style="rounded=1;whiteSpace=wrap;html=1;fillColor=#d5e8d4;strokeColor=#82b366;" vertex="1" parent="1">
          <mxGeometry x="1530" y="505" width="248" height="90" as="geometry" />
        </mxCell>
        <mxCell id="5Wk8-XbovUFPplN8qRzZ-78" value="LOAD" style="text;html=1;align=center;verticalAlign=middle;resizable=0;points=[];autosize=1;strokeColor=#82b366;fillColor=#d5e8d4;" vertex="1" parent="1">
          <mxGeometry x="1440" y="565" width="60" height="30" as="geometry" />
        </mxCell>
        <mxCell id="5Wk8-XbovUFPplN8qRzZ-79" value="" style="endArrow=classic;html=1;rounded=0;exitX=1;exitY=0.5;exitDx=0;exitDy=0;entryX=0;entryY=0.5;entryDx=0;entryDy=0;" edge="1" parent="1" source="5Wk8-XbovUFPplN8qRzZ-61" target="5Wk8-XbovUFPplN8qRzZ-77">
          <mxGeometry width="50" height="50" relative="1" as="geometry">
            <mxPoint x="1220" y="560" as="sourcePoint" />
            <mxPoint x="1098" y="560" as="targetPoint" />
          </mxGeometry>
        </mxCell>
        <mxCell id="5Wk8-XbovUFPplN8qRzZ-80" value="&lt;font style=&quot;font-size: 16px;&quot;&gt;DM.FactsTransaction&lt;/font&gt;" style="rounded=1;whiteSpace=wrap;html=1;fillColor=#d5e8d4;strokeColor=#82b366;" vertex="1" parent="1">
          <mxGeometry x="1185" y="680" width="248" height="90" as="geometry" />
        </mxCell>
        <mxCell id="5Wk8-XbovUFPplN8qRzZ-81" value="" style="endArrow=classic;html=1;rounded=0;entryX=0.5;entryY=0;entryDx=0;entryDy=0;" edge="1" parent="1">
          <mxGeometry width="50" height="50" relative="1" as="geometry">
            <mxPoint x="1308.8200000000002" y="590" as="sourcePoint" />
            <mxPoint x="1308.41" y="680" as="targetPoint" />
          </mxGeometry>
        </mxCell>
        <mxCell id="5Wk8-XbovUFPplN8qRzZ-83" value="LOAD" style="text;html=1;align=center;verticalAlign=middle;resizable=0;points=[];autosize=1;strokeColor=#82b366;fillColor=#d5e8d4;" vertex="1" parent="1">
          <mxGeometry x="1330" y="615" width="60" height="30" as="geometry" />
        </mxCell>
      </root>
    </mxGraphModel>
  </diagram>
</mxfile>
